%TF.GenerationSoftware,KiCad,Pcbnew,9.0.3*%
%TF.CreationDate,2025-08-02T05:31:17+05:30*%
%TF.ProjectId,coolbuildpathfinder,636f6f6c-6275-4696-9c64-706174686669,rev?*%
%TF.SameCoordinates,Original*%
%TF.FileFunction,Legend,Bot*%
%TF.FilePolarity,Positive*%
%FSLAX46Y46*%
G04 Gerber Fmt 4.6, Leading zero omitted, Abs format (unit mm)*
G04 Created by KiCad (PCBNEW 9.0.3) date 2025-08-02 05:31:17*
%MOMM*%
%LPD*%
G01*
G04 APERTURE LIST*
%ADD10C,0.125000*%
%ADD11C,0.000000*%
G04 APERTURE END LIST*
D10*
X136127287Y-91165516D02*
X135651097Y-91165516D01*
X136222525Y-91451231D02*
X135889192Y-90451231D01*
X135889192Y-90451231D02*
X135555859Y-91451231D01*
X135222525Y-91451231D02*
X135222525Y-90451231D01*
X135222525Y-90451231D02*
X134889192Y-91165516D01*
X134889192Y-91165516D02*
X134555859Y-90451231D01*
X134555859Y-90451231D02*
X134555859Y-91451231D01*
X134079668Y-91451231D02*
X134079668Y-90451231D01*
X134079668Y-90451231D02*
X133746335Y-91165516D01*
X133746335Y-91165516D02*
X133413002Y-90451231D01*
X133413002Y-90451231D02*
X133413002Y-91451231D01*
X132936811Y-91451231D02*
X132936811Y-90451231D01*
X135746335Y-92537365D02*
X135603478Y-92584984D01*
X135603478Y-92584984D02*
X135555859Y-92632603D01*
X135555859Y-92632603D02*
X135508240Y-92727841D01*
X135508240Y-92727841D02*
X135508240Y-92870698D01*
X135508240Y-92870698D02*
X135555859Y-92965936D01*
X135555859Y-92965936D02*
X135603478Y-93013556D01*
X135603478Y-93013556D02*
X135698716Y-93061175D01*
X135698716Y-93061175D02*
X136079668Y-93061175D01*
X136079668Y-93061175D02*
X136079668Y-92061175D01*
X136079668Y-92061175D02*
X135746335Y-92061175D01*
X135746335Y-92061175D02*
X135651097Y-92108794D01*
X135651097Y-92108794D02*
X135603478Y-92156413D01*
X135603478Y-92156413D02*
X135555859Y-92251651D01*
X135555859Y-92251651D02*
X135555859Y-92346889D01*
X135555859Y-92346889D02*
X135603478Y-92442127D01*
X135603478Y-92442127D02*
X135651097Y-92489746D01*
X135651097Y-92489746D02*
X135746335Y-92537365D01*
X135746335Y-92537365D02*
X136079668Y-92537365D01*
X135127287Y-92775460D02*
X134651097Y-92775460D01*
X135222525Y-93061175D02*
X134889192Y-92061175D01*
X134889192Y-92061175D02*
X134555859Y-93061175D01*
X134365382Y-92061175D02*
X134032049Y-93061175D01*
X134032049Y-93061175D02*
X133698716Y-92061175D01*
X133413001Y-92775460D02*
X132936811Y-92775460D01*
X133508239Y-93061175D02*
X133174906Y-92061175D01*
X133174906Y-92061175D02*
X132841573Y-93061175D01*
X136127287Y-94385404D02*
X135651097Y-94385404D01*
X136222525Y-94671119D02*
X135889192Y-93671119D01*
X135889192Y-93671119D02*
X135555859Y-94671119D01*
X134651097Y-94671119D02*
X134984430Y-94194928D01*
X135222525Y-94671119D02*
X135222525Y-93671119D01*
X135222525Y-93671119D02*
X134841573Y-93671119D01*
X134841573Y-93671119D02*
X134746335Y-93718738D01*
X134746335Y-93718738D02*
X134698716Y-93766357D01*
X134698716Y-93766357D02*
X134651097Y-93861595D01*
X134651097Y-93861595D02*
X134651097Y-94004452D01*
X134651097Y-94004452D02*
X134698716Y-94099690D01*
X134698716Y-94099690D02*
X134746335Y-94147309D01*
X134746335Y-94147309D02*
X134841573Y-94194928D01*
X134841573Y-94194928D02*
X135222525Y-94194928D01*
X133889192Y-94147309D02*
X134222525Y-94147309D01*
X134222525Y-94671119D02*
X134222525Y-93671119D01*
X134222525Y-93671119D02*
X133746335Y-93671119D01*
X133413001Y-94385404D02*
X132936811Y-94385404D01*
X133508239Y-94671119D02*
X133174906Y-93671119D01*
X133174906Y-93671119D02*
X132841573Y-94671119D01*
X132508239Y-94671119D02*
X132508239Y-93671119D01*
X132508239Y-93671119D02*
X131936811Y-94671119D01*
X131936811Y-94671119D02*
X131936811Y-93671119D01*
D11*
%TO.C,G\u002A\u002A\u002A*%
G36*
X136848976Y-92283146D02*
G01*
X136848976Y-92321414D01*
X136887244Y-92321414D01*
X136925513Y-92321414D01*
X136925513Y-92283146D01*
X136925513Y-92244877D01*
X137037766Y-92244877D01*
X137150020Y-92244877D01*
X137150020Y-92283146D01*
X137150020Y-92321414D01*
X137188289Y-92321414D01*
X137226557Y-92321414D01*
X137226557Y-92433668D01*
X137226557Y-92545922D01*
X137188289Y-92545922D01*
X137150020Y-92545922D01*
X137150020Y-92584190D01*
X137150020Y-92622459D01*
X137114303Y-92622459D01*
X137078586Y-92622459D01*
X137078586Y-92658176D01*
X137078586Y-92693893D01*
X137040318Y-92693893D01*
X137002049Y-92693893D01*
X137002049Y-92732161D01*
X137002049Y-92770430D01*
X136963781Y-92770430D01*
X136925513Y-92770430D01*
X136925513Y-92808698D01*
X136925513Y-92846967D01*
X136887244Y-92846967D01*
X136848976Y-92846967D01*
X136848976Y-92808698D01*
X136848976Y-92770430D01*
X136813259Y-92770430D01*
X136777542Y-92770430D01*
X136777542Y-92732161D01*
X136777542Y-92693893D01*
X136739273Y-92693893D01*
X136701005Y-92693893D01*
X136701005Y-92658176D01*
X136701005Y-92622459D01*
X136662736Y-92622459D01*
X136624468Y-92622459D01*
X136624468Y-92584190D01*
X136624468Y-92545922D01*
X136588751Y-92545922D01*
X136553034Y-92545922D01*
X136553034Y-92433668D01*
X136553034Y-92321414D01*
X136588751Y-92321414D01*
X136624468Y-92321414D01*
X136624468Y-92283146D01*
X136624468Y-92244877D01*
X136736722Y-92244877D01*
X136848976Y-92244877D01*
X136848976Y-92283146D01*
G37*
G36*
X129074565Y-115358500D02*
G01*
X129074565Y-115902543D01*
X128802544Y-115902543D01*
X128530522Y-115902543D01*
X128530522Y-115358500D01*
X128530522Y-114814458D01*
X128802544Y-114814458D01*
X129074565Y-114814458D01*
X129074565Y-115358500D01*
G37*
G36*
X129618608Y-114542436D02*
G01*
X129618608Y-114814458D01*
X129346586Y-114814458D01*
X129074565Y-114814458D01*
X129074565Y-114542436D01*
X129074565Y-114270415D01*
X129346586Y-114270415D01*
X129618608Y-114270415D01*
X129618608Y-114542436D01*
G37*
G36*
X130162651Y-113998393D02*
G01*
X130162651Y-114270415D01*
X129890629Y-114270415D01*
X129618608Y-114270415D01*
X129618608Y-113998393D01*
X129618608Y-113726372D01*
X129890629Y-113726372D01*
X130162651Y-113726372D01*
X130162651Y-113998393D01*
G37*
G36*
X131250736Y-113454350D02*
G01*
X131250736Y-113726372D01*
X130706694Y-113726372D01*
X130162651Y-113726372D01*
X130162651Y-113454350D01*
X130162651Y-113182329D01*
X130706694Y-113182329D01*
X131250736Y-113182329D01*
X131250736Y-113454350D01*
G37*
G36*
X132882865Y-105837751D02*
G01*
X132882865Y-106653815D01*
X132610843Y-106653815D01*
X132338822Y-106653815D01*
X132338822Y-105837751D01*
X132338822Y-105021686D01*
X132610843Y-105021686D01*
X132882865Y-105021686D01*
X132882865Y-105837751D01*
G37*
G36*
X133426908Y-104477644D02*
G01*
X133426908Y-105021686D01*
X133154886Y-105021686D01*
X132882865Y-105021686D01*
X132882865Y-104477644D01*
X132882865Y-103933601D01*
X133154886Y-103933601D01*
X133426908Y-103933601D01*
X133426908Y-104477644D01*
G37*
G36*
X133970951Y-103389558D02*
G01*
X133970951Y-103933601D01*
X133698929Y-103933601D01*
X133426908Y-103933601D01*
X133426908Y-103389558D01*
X133426908Y-102845515D01*
X133698929Y-102845515D01*
X133970951Y-102845515D01*
X133970951Y-103389558D01*
G37*
G36*
X134514993Y-102573494D02*
G01*
X134514993Y-102845515D01*
X134242972Y-102845515D01*
X133970951Y-102845515D01*
X133970951Y-102573494D01*
X133970951Y-102301472D01*
X134242972Y-102301472D01*
X134514993Y-102301472D01*
X134514993Y-102573494D01*
G37*
G36*
X135059036Y-102029451D02*
G01*
X135059036Y-102301472D01*
X134787015Y-102301472D01*
X134514993Y-102301472D01*
X134514993Y-102029451D01*
X134514993Y-101757429D01*
X134787015Y-101757429D01*
X135059036Y-101757429D01*
X135059036Y-102029451D01*
G37*
G36*
X135603079Y-101485408D02*
G01*
X135603079Y-101757429D01*
X135331058Y-101757429D01*
X135059036Y-101757429D01*
X135059036Y-101485408D01*
X135059036Y-101213387D01*
X135331058Y-101213387D01*
X135603079Y-101213387D01*
X135603079Y-101485408D01*
G37*
G36*
X136691165Y-100941365D02*
G01*
X136691165Y-101213387D01*
X136147122Y-101213387D01*
X135603079Y-101213387D01*
X135603079Y-100941365D01*
X135603079Y-100669344D01*
X136147122Y-100669344D01*
X136691165Y-100669344D01*
X136691165Y-100941365D01*
G37*
G36*
X137779250Y-100397322D02*
G01*
X137779250Y-100669344D01*
X137235208Y-100669344D01*
X136691165Y-100669344D01*
X136691165Y-100397322D01*
X136691165Y-100125301D01*
X137235208Y-100125301D01*
X137779250Y-100125301D01*
X137779250Y-100397322D01*
G37*
G36*
X138867336Y-99853279D02*
G01*
X138867336Y-100125301D01*
X138323293Y-100125301D01*
X137779250Y-100125301D01*
X137779250Y-99853279D01*
X137779250Y-99581258D01*
X138323293Y-99581258D01*
X138867336Y-99581258D01*
X138867336Y-99853279D01*
G37*
G36*
X139955422Y-99309237D02*
G01*
X139955422Y-99581258D01*
X139411379Y-99581258D01*
X138867336Y-99581258D01*
X138867336Y-99309237D01*
X138867336Y-99037215D01*
X139411379Y-99037215D01*
X139955422Y-99037215D01*
X139955422Y-99309237D01*
G37*
G36*
X141043507Y-98765194D02*
G01*
X141043507Y-99037215D01*
X140499465Y-99037215D01*
X139955422Y-99037215D01*
X139955422Y-98765194D01*
X139955422Y-98493172D01*
X140499465Y-98493172D01*
X141043507Y-98493172D01*
X141043507Y-98765194D01*
G37*
G36*
X142131593Y-98221151D02*
G01*
X142131593Y-98493172D01*
X141587550Y-98493172D01*
X141043507Y-98493172D01*
X141043507Y-98221151D01*
X141043507Y-97949130D01*
X141587550Y-97949130D01*
X142131593Y-97949130D01*
X142131593Y-98221151D01*
G37*
G36*
X143219679Y-97677108D02*
G01*
X143219679Y-97949130D01*
X142675636Y-97949130D01*
X142131593Y-97949130D01*
X142131593Y-97677108D01*
X142131593Y-97405087D01*
X142675636Y-97405087D01*
X143219679Y-97405087D01*
X143219679Y-97677108D01*
G37*
G36*
X143219679Y-118894779D02*
G01*
X143219679Y-119166800D01*
X142675636Y-119166800D01*
X142131593Y-119166800D01*
X142131593Y-118894779D01*
X142131593Y-118622757D01*
X142675636Y-118622757D01*
X143219679Y-118622757D01*
X143219679Y-118894779D01*
G37*
G36*
X143763722Y-97133065D02*
G01*
X143763722Y-97405087D01*
X143491700Y-97405087D01*
X143219679Y-97405087D01*
X143219679Y-97133065D01*
X143219679Y-96861044D01*
X143491700Y-96861044D01*
X143763722Y-96861044D01*
X143763722Y-97133065D01*
G37*
G36*
X144307764Y-87884337D02*
G01*
X144307764Y-88156358D01*
X144035743Y-88156358D01*
X143763722Y-88156358D01*
X143763722Y-87884337D01*
X143763722Y-87612316D01*
X144035743Y-87612316D01*
X144307764Y-87612316D01*
X144307764Y-87884337D01*
G37*
G36*
X144307764Y-96317001D02*
G01*
X144307764Y-96861044D01*
X144035743Y-96861044D01*
X143763722Y-96861044D01*
X143763722Y-96317001D01*
X143763722Y-95772958D01*
X144035743Y-95772958D01*
X144307764Y-95772958D01*
X144307764Y-96317001D01*
G37*
G36*
X144851807Y-118350736D02*
G01*
X144851807Y-118622757D01*
X144307764Y-118622757D01*
X143763722Y-118622757D01*
X143763722Y-118350736D01*
X143763722Y-118078715D01*
X144307764Y-118078715D01*
X144851807Y-118078715D01*
X144851807Y-118350736D01*
G37*
G36*
X144851807Y-95228915D02*
G01*
X144851807Y-95772958D01*
X144579786Y-95772958D01*
X144307764Y-95772958D01*
X144307764Y-95228915D01*
X144307764Y-94684873D01*
X144579786Y-94684873D01*
X144851807Y-94684873D01*
X144851807Y-95228915D01*
G37*
G36*
X145395850Y-93868808D02*
G01*
X145395850Y-94684873D01*
X145123829Y-94684873D01*
X144851807Y-94684873D01*
X144851807Y-93868808D01*
X144851807Y-93052744D01*
X145123829Y-93052744D01*
X145395850Y-93052744D01*
X145395850Y-93868808D01*
G37*
G36*
X148116064Y-82987952D02*
G01*
X148116064Y-83259973D01*
X147844043Y-83259973D01*
X147572021Y-83259973D01*
X147572021Y-82987952D01*
X147572021Y-82715930D01*
X147844043Y-82715930D01*
X148116064Y-82715930D01*
X148116064Y-82987952D01*
G37*
G36*
X148660107Y-81899866D02*
G01*
X148660107Y-82171887D01*
X148388086Y-82171887D01*
X148116064Y-82171887D01*
X148116064Y-81899866D01*
X148116064Y-81627844D01*
X148388086Y-81627844D01*
X148660107Y-81627844D01*
X148660107Y-81899866D01*
G37*
G36*
X149748193Y-81355823D02*
G01*
X149748193Y-81627844D01*
X149204150Y-81627844D01*
X148660107Y-81627844D01*
X148660107Y-81355823D01*
X148660107Y-81083802D01*
X149204150Y-81083802D01*
X149748193Y-81083802D01*
X149748193Y-81355823D01*
G37*
G36*
X154100536Y-105021686D02*
G01*
X154100536Y-105565729D01*
X153828514Y-105565729D01*
X153556493Y-105565729D01*
X153556493Y-105021686D01*
X153556493Y-104477644D01*
X153828514Y-104477644D01*
X154100536Y-104477644D01*
X154100536Y-105021686D01*
G37*
G36*
X154644578Y-104205622D02*
G01*
X154644578Y-104477644D01*
X154372557Y-104477644D01*
X154100536Y-104477644D01*
X154100536Y-104205622D01*
X154100536Y-103933601D01*
X154372557Y-103933601D01*
X154644578Y-103933601D01*
X154644578Y-104205622D01*
G37*
G36*
X155732664Y-80811780D02*
G01*
X155732664Y-81083802D01*
X155188621Y-81083802D01*
X154644578Y-81083802D01*
X154644578Y-80811780D01*
X154644578Y-80539759D01*
X155188621Y-80539759D01*
X155732664Y-80539759D01*
X155732664Y-80811780D01*
G37*
G36*
X155188621Y-91148594D02*
G01*
X155188621Y-91420616D01*
X154916600Y-91420616D01*
X154644578Y-91420616D01*
X154644578Y-91148594D01*
X154644578Y-90876573D01*
X154916600Y-90876573D01*
X155188621Y-90876573D01*
X155188621Y-91148594D01*
G37*
G36*
X155732664Y-106925836D02*
G01*
X155732664Y-107197858D01*
X155188621Y-107197858D01*
X154644578Y-107197858D01*
X154644578Y-106925836D01*
X154644578Y-106653815D01*
X155188621Y-106653815D01*
X155732664Y-106653815D01*
X155732664Y-106925836D01*
G37*
G36*
X156820750Y-91692637D02*
G01*
X156820750Y-91964658D01*
X156276707Y-91964658D01*
X155732664Y-91964658D01*
X155732664Y-91692637D01*
X155732664Y-91420616D01*
X156276707Y-91420616D01*
X156820750Y-91420616D01*
X156820750Y-91692637D01*
G37*
G36*
X156820750Y-107469879D02*
G01*
X156820750Y-107741901D01*
X156548728Y-107741901D01*
X156276707Y-107741901D01*
X156276707Y-107469879D01*
X156276707Y-107197858D01*
X156548728Y-107197858D01*
X156820750Y-107197858D01*
X156820750Y-107469879D01*
G37*
G36*
X157364793Y-105293708D02*
G01*
X157364793Y-105565729D01*
X157092771Y-105565729D01*
X156820750Y-105565729D01*
X156820750Y-105293708D01*
X156820750Y-105021686D01*
X157092771Y-105021686D01*
X157364793Y-105021686D01*
X157364793Y-105293708D01*
G37*
G36*
X157908835Y-104477644D02*
G01*
X157908835Y-105021686D01*
X157636814Y-105021686D01*
X157364793Y-105021686D01*
X157364793Y-104477644D01*
X157364793Y-103933601D01*
X157636814Y-103933601D01*
X157908835Y-103933601D01*
X157908835Y-104477644D01*
G37*
G36*
X158996921Y-93324765D02*
G01*
X158996921Y-93596787D01*
X158452878Y-93596787D01*
X157908835Y-93596787D01*
X157908835Y-93324765D01*
X157908835Y-93052744D01*
X158452878Y-93052744D01*
X158996921Y-93052744D01*
X158996921Y-93324765D01*
G37*
G36*
X159540964Y-92780723D02*
G01*
X159540964Y-93052744D01*
X159268943Y-93052744D01*
X158996921Y-93052744D01*
X158996921Y-92780723D01*
X158996921Y-92508701D01*
X159268943Y-92508701D01*
X159540964Y-92508701D01*
X159540964Y-92780723D01*
G37*
G36*
X160085007Y-92236680D02*
G01*
X160085007Y-92508701D01*
X159812985Y-92508701D01*
X159540964Y-92508701D01*
X159540964Y-92236680D01*
X159540964Y-91964658D01*
X159812985Y-91964658D01*
X160085007Y-91964658D01*
X160085007Y-92236680D01*
G37*
G36*
X160629050Y-91420616D02*
G01*
X160629050Y-91964658D01*
X160357028Y-91964658D01*
X160085007Y-91964658D01*
X160085007Y-91420616D01*
X160085007Y-90876573D01*
X160357028Y-90876573D01*
X160629050Y-90876573D01*
X160629050Y-91420616D01*
G37*
G36*
X132338822Y-111822222D02*
G01*
X132338822Y-116990629D01*
X132066801Y-116990629D01*
X131794779Y-116990629D01*
X131794779Y-115086479D01*
X131794779Y-113182329D01*
X131522758Y-113182329D01*
X131250736Y-113182329D01*
X131250736Y-112910308D01*
X131250736Y-112638286D01*
X131522758Y-112638286D01*
X131794779Y-112638286D01*
X131794779Y-109646051D01*
X131794779Y-106653815D01*
X132066801Y-106653815D01*
X132338822Y-106653815D01*
X132338822Y-111822222D01*
G37*
G36*
X135059036Y-119710843D02*
G01*
X135603079Y-119710843D01*
X135603079Y-119982865D01*
X135603079Y-120254886D01*
X135059036Y-120254886D01*
X134514993Y-120254886D01*
X134514993Y-119982865D01*
X134514993Y-119710843D01*
X135059036Y-119710843D01*
G37*
G36*
X134514993Y-119438822D02*
G01*
X134514993Y-119710843D01*
X134242972Y-119710843D01*
X133970951Y-119710843D01*
X133970951Y-119438822D01*
X133970951Y-119166800D01*
X134242972Y-119166800D01*
X134514993Y-119166800D01*
X134514993Y-119438822D01*
G37*
G36*
X145395850Y-85436144D02*
G01*
X146483936Y-85436144D01*
X146483936Y-85708166D01*
X146483936Y-85980187D01*
X145395850Y-85980187D01*
X144307764Y-85980187D01*
X144307764Y-85708166D01*
X144307764Y-85436144D01*
X145395850Y-85436144D01*
G37*
G36*
X144307764Y-85164123D02*
G01*
X144307764Y-85436144D01*
X143763722Y-85436144D01*
X143219679Y-85436144D01*
X143219679Y-85164123D01*
X143219679Y-84892101D01*
X143763722Y-84892101D01*
X144307764Y-84892101D01*
X144307764Y-85164123D01*
G37*
G36*
X156276707Y-108013922D02*
G01*
X156276707Y-108285943D01*
X155732664Y-108285943D01*
X155188621Y-108285943D01*
X155188621Y-108557965D01*
X155188621Y-108829986D01*
X154916600Y-108829986D01*
X154644578Y-108829986D01*
X154644578Y-108557965D01*
X154644578Y-108285943D01*
X154372557Y-108285943D01*
X154100536Y-108285943D01*
X154100536Y-108013922D01*
X154100536Y-107741901D01*
X155188621Y-107741901D01*
X156276707Y-107741901D01*
X156276707Y-108013922D01*
G37*
G36*
X157908835Y-89516466D02*
G01*
X157908835Y-89788487D01*
X157636814Y-89788487D01*
X157364793Y-89788487D01*
X157364793Y-90060508D01*
X157364793Y-90332530D01*
X157092771Y-90332530D01*
X156820750Y-90332530D01*
X156820750Y-90060508D01*
X156820750Y-89788487D01*
X156548728Y-89788487D01*
X156276707Y-89788487D01*
X156276707Y-89516466D01*
X156276707Y-89244444D01*
X157092771Y-89244444D01*
X157908835Y-89244444D01*
X157908835Y-89516466D01*
G37*
G36*
X156820750Y-105837751D02*
G01*
X156820750Y-106109772D01*
X157092771Y-106109772D01*
X157364793Y-106109772D01*
X157364793Y-106653815D01*
X157364793Y-107197858D01*
X157092771Y-107197858D01*
X156820750Y-107197858D01*
X156820750Y-106925836D01*
X156820750Y-106653815D01*
X156276707Y-106653815D01*
X155732664Y-106653815D01*
X155732664Y-106381794D01*
X155732664Y-106109772D01*
X156004685Y-106109772D01*
X156276707Y-106109772D01*
X156276707Y-105837751D01*
X156276707Y-105565729D01*
X156548728Y-105565729D01*
X156820750Y-105565729D01*
X156820750Y-105837751D01*
G37*
G36*
X146483936Y-88700401D02*
G01*
X146483936Y-89788487D01*
X146211914Y-89788487D01*
X145939893Y-89788487D01*
X145939893Y-91420616D01*
X145939893Y-93052744D01*
X145667872Y-93052744D01*
X145395850Y-93052744D01*
X145395850Y-91148594D01*
X145395850Y-89244444D01*
X144307764Y-89244444D01*
X143219679Y-89244444D01*
X143219679Y-88700401D01*
X143219679Y-88156358D01*
X143491700Y-88156358D01*
X143763722Y-88156358D01*
X143763722Y-88428380D01*
X143763722Y-88700401D01*
X144851807Y-88700401D01*
X145939893Y-88700401D01*
X145939893Y-88156358D01*
X145939893Y-87612316D01*
X146211914Y-87612316D01*
X146483936Y-87612316D01*
X146483936Y-88700401D01*
G37*
G36*
X157364793Y-91148594D02*
G01*
X157364793Y-91420616D01*
X157908835Y-91420616D01*
X158452878Y-91420616D01*
X158452878Y-91148594D01*
X158452878Y-90876573D01*
X158724900Y-90876573D01*
X158996921Y-90876573D01*
X158996921Y-91148594D01*
X158996921Y-91420616D01*
X158724900Y-91420616D01*
X158452878Y-91420616D01*
X158452878Y-91692637D01*
X158452878Y-91964658D01*
X157908835Y-91964658D01*
X157364793Y-91964658D01*
X157364793Y-91692637D01*
X157364793Y-91420616D01*
X157092771Y-91420616D01*
X156820750Y-91420616D01*
X156820750Y-91148594D01*
X156820750Y-90876573D01*
X157092771Y-90876573D01*
X157364793Y-90876573D01*
X157364793Y-91148594D01*
G37*
G36*
X163621285Y-91964658D02*
G01*
X163893307Y-91964658D01*
X163893307Y-92236680D01*
X163893307Y-92508701D01*
X163621285Y-92508701D01*
X163349264Y-92508701D01*
X163349264Y-92236680D01*
X163349264Y-91964658D01*
X163621285Y-91964658D01*
G37*
G36*
X163077242Y-91420616D02*
G01*
X163349264Y-91420616D01*
X163349264Y-91692637D01*
X163349264Y-91964658D01*
X163077242Y-91964658D01*
X162805221Y-91964658D01*
X162805221Y-91692637D01*
X162805221Y-91420616D01*
X163077242Y-91420616D01*
G37*
G36*
X162805221Y-91148594D02*
G01*
X162805221Y-91420616D01*
X162261178Y-91420616D01*
X161717135Y-91420616D01*
X161717135Y-91148594D01*
X161717135Y-90876573D01*
X162261178Y-90876573D01*
X162805221Y-90876573D01*
X162805221Y-91148594D01*
G37*
G36*
X150836279Y-93596787D02*
G01*
X151924364Y-93596787D01*
X151924364Y-93868808D01*
X151924364Y-94140830D01*
X150836279Y-94140830D01*
X149748193Y-94140830D01*
X149748193Y-93868808D01*
X149748193Y-93596787D01*
X150836279Y-93596787D01*
G37*
G36*
X149204150Y-93052744D02*
G01*
X149748193Y-93052744D01*
X149748193Y-93324765D01*
X149748193Y-93596787D01*
X149204150Y-93596787D01*
X148660107Y-93596787D01*
X148660107Y-93324765D01*
X148660107Y-93052744D01*
X149204150Y-93052744D01*
G37*
G36*
X148388086Y-92508701D02*
G01*
X148660107Y-92508701D01*
X148660107Y-92780723D01*
X148660107Y-93052744D01*
X148388086Y-93052744D01*
X148116064Y-93052744D01*
X148116064Y-92780723D01*
X148116064Y-92508701D01*
X148388086Y-92508701D01*
G37*
G36*
X148116064Y-92236680D02*
G01*
X148116064Y-92508701D01*
X147844043Y-92508701D01*
X147572021Y-92508701D01*
X147572021Y-92236680D01*
X147572021Y-91964658D01*
X147844043Y-91964658D01*
X148116064Y-91964658D01*
X148116064Y-92236680D01*
G37*
G36*
X165797457Y-90876573D02*
G01*
X166069478Y-90876573D01*
X166069478Y-91148594D01*
X166069478Y-91420616D01*
X165797457Y-91420616D01*
X165525435Y-91420616D01*
X165525435Y-91148594D01*
X165525435Y-90876573D01*
X165797457Y-90876573D01*
G37*
G36*
X164981392Y-90332530D02*
G01*
X165525435Y-90332530D01*
X165525435Y-90604551D01*
X165525435Y-90876573D01*
X164981392Y-90876573D01*
X164437349Y-90876573D01*
X164437349Y-90604551D01*
X164437349Y-90332530D01*
X164981392Y-90332530D01*
G37*
G36*
X163893307Y-89788487D02*
G01*
X164437349Y-89788487D01*
X164437349Y-90060508D01*
X164437349Y-90332530D01*
X163893307Y-90332530D01*
X163349264Y-90332530D01*
X163349264Y-90060508D01*
X163349264Y-89788487D01*
X163893307Y-89788487D01*
G37*
G36*
X163349264Y-89516466D02*
G01*
X163349264Y-89788487D01*
X162533200Y-89788487D01*
X161717135Y-89788487D01*
X161717135Y-89516466D01*
X161717135Y-89244444D01*
X162533200Y-89244444D01*
X163349264Y-89244444D01*
X163349264Y-89516466D01*
G37*
G36*
X153556493Y-86252209D02*
G01*
X153556493Y-86524230D01*
X153284471Y-86524230D01*
X153012450Y-86524230D01*
X153012450Y-86796251D01*
X153012450Y-87068273D01*
X153284471Y-87068273D01*
X153556493Y-87068273D01*
X153556493Y-86796251D01*
X153556493Y-86524230D01*
X153828514Y-86524230D01*
X154100536Y-86524230D01*
X154100536Y-86796251D01*
X154100536Y-87612316D01*
X154100536Y-88700401D01*
X153828514Y-88700401D01*
X153556493Y-88700401D01*
X153556493Y-88972423D01*
X153556493Y-89244444D01*
X153012450Y-89244444D01*
X152468407Y-89244444D01*
X152468407Y-88972423D01*
X152468407Y-88700401D01*
X152196386Y-88700401D01*
X151924364Y-88700401D01*
X151924364Y-87612316D01*
X151924364Y-86524230D01*
X152196386Y-86524230D01*
X152468407Y-86524230D01*
X152468407Y-86252209D01*
X152468407Y-85980187D01*
X153012450Y-85980187D01*
X153556493Y-85980187D01*
X153556493Y-86252209D01*
G37*
G36*
X138867336Y-104205622D02*
G01*
X138867336Y-104477644D01*
X139411379Y-104477644D01*
X139955422Y-104477644D01*
X139955422Y-104205622D01*
X139955422Y-103933601D01*
X140771486Y-103933601D01*
X141587550Y-103933601D01*
X141587550Y-104477644D01*
X141587550Y-105021686D01*
X141315529Y-105021686D01*
X141043507Y-105021686D01*
X141043507Y-104749665D01*
X141043507Y-104477644D01*
X140499465Y-104477644D01*
X139955422Y-104477644D01*
X139955422Y-104749665D01*
X139955422Y-105021686D01*
X139411379Y-105021686D01*
X138867336Y-105021686D01*
X138867336Y-105293708D01*
X138867336Y-105565729D01*
X138595315Y-105565729D01*
X138323293Y-105565729D01*
X138323293Y-105837751D01*
X138323293Y-106109772D01*
X138051272Y-106109772D01*
X137779250Y-106109772D01*
X137779250Y-105565729D01*
X137779250Y-105021686D01*
X138051272Y-105021686D01*
X138323293Y-105021686D01*
X138323293Y-104477644D01*
X138323293Y-103933601D01*
X138595315Y-103933601D01*
X138867336Y-103933601D01*
X138867336Y-104205622D01*
G37*
G36*
X145123829Y-83259973D02*
G01*
X145395850Y-83259973D01*
X145395850Y-83531994D01*
X145395850Y-83804016D01*
X146211914Y-83804016D01*
X147027979Y-83804016D01*
X147027979Y-83531994D01*
X147027979Y-83259973D01*
X147300000Y-83259973D01*
X147572021Y-83259973D01*
X147572021Y-83531994D01*
X147572021Y-83804016D01*
X147300000Y-83804016D01*
X147027979Y-83804016D01*
X147027979Y-84076037D01*
X147027979Y-84348059D01*
X146211914Y-84348059D01*
X145395850Y-84348059D01*
X145395850Y-84076037D01*
X145395850Y-83804016D01*
X145123829Y-83804016D01*
X144851807Y-83804016D01*
X144851807Y-83531994D01*
X144851807Y-83259973D01*
X145123829Y-83259973D01*
G37*
G36*
X144579786Y-82715930D02*
G01*
X144851807Y-82715930D01*
X144851807Y-82987952D01*
X144851807Y-83259973D01*
X144579786Y-83259973D01*
X144307764Y-83259973D01*
X144307764Y-82987952D01*
X144307764Y-82715930D01*
X144579786Y-82715930D01*
G37*
G36*
X144035743Y-81083802D02*
G01*
X144307764Y-81083802D01*
X144307764Y-81899866D01*
X144307764Y-82715930D01*
X144035743Y-82715930D01*
X143763722Y-82715930D01*
X143763722Y-81899866D01*
X143763722Y-81083802D01*
X144035743Y-81083802D01*
G37*
G36*
X143491700Y-80539759D02*
G01*
X143763722Y-80539759D01*
X143763722Y-80811780D01*
X143763722Y-81083802D01*
X143491700Y-81083802D01*
X143219679Y-81083802D01*
X143219679Y-80811780D01*
X143219679Y-80539759D01*
X143491700Y-80539759D01*
G37*
G36*
X143219679Y-80267737D02*
G01*
X143219679Y-80539759D01*
X142947657Y-80539759D01*
X142675636Y-80539759D01*
X142675636Y-80267737D01*
X142675636Y-79995716D01*
X142947657Y-79995716D01*
X143219679Y-79995716D01*
X143219679Y-80267737D01*
G37*
G36*
X148388086Y-111006158D02*
G01*
X148660107Y-111006158D01*
X148660107Y-111822222D01*
X148660107Y-112638286D01*
X148388086Y-112638286D01*
X148116064Y-112638286D01*
X148116064Y-111822222D01*
X148116064Y-111006158D01*
X148388086Y-111006158D01*
G37*
G36*
X147844043Y-109374029D02*
G01*
X148116064Y-109374029D01*
X148116064Y-110190093D01*
X148116064Y-111006158D01*
X147844043Y-111006158D01*
X147572021Y-111006158D01*
X147572021Y-110190093D01*
X147572021Y-109374029D01*
X147844043Y-109374029D01*
G37*
G36*
X147300000Y-107741901D02*
G01*
X147572021Y-107741901D01*
X147572021Y-108557965D01*
X147572021Y-109374029D01*
X147300000Y-109374029D01*
X147027979Y-109374029D01*
X147027979Y-108557965D01*
X147027979Y-107741901D01*
X147300000Y-107741901D01*
G37*
G36*
X146755957Y-105565729D02*
G01*
X147027979Y-105565729D01*
X147027979Y-106653815D01*
X147027979Y-107741901D01*
X146755957Y-107741901D01*
X146483936Y-107741901D01*
X146483936Y-107469879D01*
X146483936Y-107197858D01*
X146211914Y-107197858D01*
X145939893Y-107197858D01*
X145939893Y-106925836D01*
X145939893Y-106653815D01*
X145395850Y-106653815D01*
X144851807Y-106653815D01*
X144851807Y-106381794D01*
X144851807Y-106109772D01*
X145395850Y-106109772D01*
X145939893Y-106109772D01*
X145939893Y-106381794D01*
X145939893Y-106653815D01*
X146211914Y-106653815D01*
X146483936Y-106653815D01*
X146483936Y-106109772D01*
X146483936Y-105565729D01*
X146755957Y-105565729D01*
G37*
G36*
X141043507Y-105293708D02*
G01*
X141043507Y-105565729D01*
X142947657Y-105565729D01*
X144851807Y-105565729D01*
X144851807Y-105837751D01*
X144851807Y-106109772D01*
X142403615Y-106109772D01*
X139955422Y-106109772D01*
X139955422Y-105837751D01*
X139955422Y-105565729D01*
X140227443Y-105565729D01*
X140499465Y-105565729D01*
X140499465Y-105293708D01*
X140499465Y-105021686D01*
X140771486Y-105021686D01*
X141043507Y-105021686D01*
X141043507Y-105293708D01*
G37*
G36*
X146483936Y-104205622D02*
G01*
X146483936Y-105565729D01*
X146211914Y-105565729D01*
X145939893Y-105565729D01*
X145939893Y-104205622D01*
X145939893Y-102845515D01*
X146211914Y-102845515D01*
X146483936Y-102845515D01*
X146483936Y-104205622D01*
G37*
G36*
X160901071Y-87068273D02*
G01*
X161173092Y-87068273D01*
X161173092Y-88972423D01*
X161173092Y-90876573D01*
X160901071Y-90876573D01*
X160629050Y-90876573D01*
X160629050Y-88972423D01*
X160629050Y-87068273D01*
X160901071Y-87068273D01*
G37*
G36*
X160629050Y-87068273D02*
G01*
X160357028Y-87068273D01*
X160085007Y-87068273D01*
X160085007Y-87612316D01*
X160085007Y-88156358D01*
X159812985Y-88156358D01*
X159540964Y-88156358D01*
X159540964Y-88428380D01*
X159540964Y-88700401D01*
X158996921Y-88700401D01*
X158452878Y-88700401D01*
X158452878Y-88428380D01*
X158452878Y-88156358D01*
X158180857Y-88156358D01*
X157908835Y-88156358D01*
X157908835Y-87068273D01*
X157908835Y-85980187D01*
X158180857Y-85980187D01*
X158452878Y-85980187D01*
X158996921Y-85980187D01*
X158996921Y-86252209D01*
X158996921Y-86524230D01*
X159268943Y-86524230D01*
X159540964Y-86524230D01*
X159540964Y-86252209D01*
X159540964Y-85980187D01*
X159268943Y-85980187D01*
X158996921Y-85980187D01*
X158452878Y-85980187D01*
X158452878Y-85708166D01*
X158452878Y-85436144D01*
X158996921Y-85436144D01*
X159540964Y-85436144D01*
X159540964Y-85708166D01*
X159540964Y-85980187D01*
X159812985Y-85980187D01*
X160085007Y-85980187D01*
X160085007Y-85708166D01*
X160085007Y-85436144D01*
X160357028Y-85436144D01*
X160629050Y-85436144D01*
X160629050Y-86252209D01*
X160629050Y-87068273D01*
G37*
G36*
X144579786Y-86524230D02*
G01*
X145395850Y-86524230D01*
X145395850Y-86796251D01*
X145395850Y-87068273D01*
X145123829Y-87068273D01*
X144851807Y-87068273D01*
X144851807Y-87340294D01*
X144851807Y-87612316D01*
X144579786Y-87612316D01*
X144307764Y-87612316D01*
X144307764Y-87340294D01*
X144307764Y-87068273D01*
X144035743Y-87068273D01*
X143763722Y-87068273D01*
X143763722Y-86796251D01*
X143763722Y-86524230D01*
X144579786Y-86524230D01*
G37*
G36*
X143491700Y-85980187D02*
G01*
X143763722Y-85980187D01*
X143763722Y-86252209D01*
X143763722Y-86524230D01*
X143491700Y-86524230D01*
X143219679Y-86524230D01*
X143219679Y-86252209D01*
X143219679Y-85980187D01*
X143491700Y-85980187D01*
G37*
G36*
X142947657Y-85436144D02*
G01*
X143219679Y-85436144D01*
X143219679Y-85708166D01*
X143219679Y-85980187D01*
X142947657Y-85980187D01*
X142675636Y-85980187D01*
X142675636Y-85708166D01*
X142675636Y-85436144D01*
X142947657Y-85436144D01*
G37*
G36*
X159812985Y-84348059D02*
G01*
X160085007Y-84348059D01*
X160085007Y-84892101D01*
X160085007Y-85436144D01*
X159812985Y-85436144D01*
X159540964Y-85436144D01*
X159540964Y-84892101D01*
X159540964Y-84348059D01*
X159812985Y-84348059D01*
G37*
G36*
X141859572Y-83804016D02*
G01*
X142131593Y-83804016D01*
X142131593Y-84076037D01*
X142131593Y-84348059D01*
X142675636Y-84348059D01*
X143219679Y-84348059D01*
X143219679Y-84620080D01*
X143219679Y-84892101D01*
X142947657Y-84892101D01*
X142675636Y-84892101D01*
X142675636Y-85164123D01*
X142675636Y-85436144D01*
X142403615Y-85436144D01*
X142131593Y-85436144D01*
X142131593Y-85164123D01*
X142131593Y-84892101D01*
X141859572Y-84892101D01*
X141587550Y-84892101D01*
X141587550Y-84348059D01*
X141587550Y-83804016D01*
X141859572Y-83804016D01*
G37*
G36*
X158996921Y-79995716D02*
G01*
X158996921Y-81083802D01*
X159268943Y-81083802D01*
X159540964Y-81083802D01*
X159540964Y-82715930D01*
X159540964Y-84348059D01*
X159268943Y-84348059D01*
X158996921Y-84348059D01*
X158996921Y-83804016D01*
X158996921Y-83259973D01*
X158724900Y-83259973D01*
X158452878Y-83259973D01*
X158452878Y-82987952D01*
X158452878Y-82715930D01*
X158180857Y-82715930D01*
X157908835Y-82715930D01*
X157908835Y-82443909D01*
X157908835Y-82171887D01*
X157636814Y-82171887D01*
X157364793Y-82171887D01*
X157364793Y-81899866D01*
X157364793Y-81627844D01*
X156820750Y-81627844D01*
X156276707Y-81627844D01*
X156276707Y-81355823D01*
X156276707Y-81083802D01*
X157092771Y-81083802D01*
X157908835Y-81083802D01*
X157908835Y-80811780D01*
X157908835Y-80539759D01*
X157092771Y-80539759D01*
X156276707Y-80539759D01*
X156276707Y-80267737D01*
X156276707Y-79995716D01*
X156548728Y-79995716D01*
X156820750Y-79995716D01*
X156820750Y-79723694D01*
X156820750Y-79451673D01*
X156276707Y-79451673D01*
X155732664Y-79451673D01*
X155732664Y-79723694D01*
X155732664Y-79995716D01*
X154644578Y-79995716D01*
X153556493Y-79995716D01*
X153556493Y-80267737D01*
X153556493Y-80539759D01*
X152196386Y-80539759D01*
X150836279Y-80539759D01*
X150836279Y-80811780D01*
X150836279Y-81083802D01*
X150292236Y-81083802D01*
X149748193Y-81083802D01*
X149748193Y-80811780D01*
X149748193Y-80539759D01*
X149476171Y-80539759D01*
X149204150Y-80539759D01*
X149204150Y-80267737D01*
X149204150Y-79995716D01*
X148116064Y-79995716D01*
X147027979Y-79995716D01*
X147027979Y-79723694D01*
X147027979Y-79451673D01*
X148116064Y-79451673D01*
X149204150Y-79451673D01*
X149204150Y-79723694D01*
X149204150Y-79995716D01*
X150292236Y-79995716D01*
X151380321Y-79995716D01*
X151380321Y-79451673D01*
X151380321Y-78907630D01*
X151652343Y-78907630D01*
X151924364Y-78907630D01*
X156820750Y-78907630D01*
X156820750Y-79179652D01*
X156820750Y-79451673D01*
X157092771Y-79451673D01*
X157364793Y-79451673D01*
X157364793Y-79179652D01*
X157364793Y-78907630D01*
X157092771Y-78907630D01*
X156820750Y-78907630D01*
X151924364Y-78907630D01*
X151924364Y-78363587D01*
X151924364Y-77819545D01*
X152196386Y-77819545D01*
X152468407Y-77819545D01*
X152468407Y-77547523D01*
X152468407Y-77275502D01*
X152740428Y-77275502D01*
X153012450Y-77275502D01*
X153012450Y-77003480D01*
X153012450Y-76731459D01*
X153284471Y-76731459D01*
X153556493Y-76731459D01*
X153556493Y-76459437D01*
X153556493Y-76187416D01*
X153828514Y-76187416D01*
X154100536Y-76187416D01*
X154100536Y-75915395D01*
X154100536Y-75643373D01*
X154372557Y-75643373D01*
X154644578Y-75643373D01*
X154644578Y-75371352D01*
X154644578Y-75099330D01*
X154916600Y-75099330D01*
X155188621Y-75099330D01*
X155188621Y-74827309D01*
X155188621Y-74555288D01*
X155460643Y-74555288D01*
X155732664Y-74555288D01*
X155732664Y-74283266D01*
X155732664Y-74011245D01*
X156276707Y-74011245D01*
X156820750Y-74011245D01*
X156820750Y-74283266D01*
X156820750Y-74555288D01*
X157092771Y-74555288D01*
X157364793Y-74555288D01*
X157364793Y-75099330D01*
X157364793Y-75643373D01*
X157636814Y-75643373D01*
X157908835Y-75643373D01*
X157908835Y-76459437D01*
X157908835Y-77275502D01*
X158180857Y-77275502D01*
X158452878Y-77275502D01*
X158452878Y-78091566D01*
X158452878Y-78907630D01*
X158724900Y-78907630D01*
X158996921Y-78907630D01*
X158996921Y-79179652D01*
X158996921Y-79995716D01*
G37*
G36*
X141315529Y-82715930D02*
G01*
X141587550Y-82715930D01*
X141587550Y-83259973D01*
X141587550Y-83804016D01*
X141315529Y-83804016D01*
X141043507Y-83804016D01*
X141043507Y-83259973D01*
X141043507Y-82715930D01*
X141315529Y-82715930D01*
G37*
G36*
X143219679Y-78091566D02*
G01*
X143219679Y-78363587D01*
X141859572Y-78363587D01*
X140499465Y-78363587D01*
X140499465Y-79179652D01*
X140499465Y-79995716D01*
X140771486Y-79995716D01*
X141043507Y-79995716D01*
X141043507Y-79723694D01*
X141043507Y-79451673D01*
X141859572Y-79451673D01*
X142675636Y-79451673D01*
X142675636Y-79723694D01*
X142675636Y-79995716D01*
X142131593Y-79995716D01*
X141587550Y-79995716D01*
X141587550Y-80267737D01*
X141587550Y-80539759D01*
X141315529Y-80539759D01*
X141043507Y-80539759D01*
X141043507Y-81627844D01*
X141043507Y-82715930D01*
X140771486Y-82715930D01*
X140499465Y-82715930D01*
X140499465Y-82171887D01*
X140499465Y-81627844D01*
X140227443Y-81627844D01*
X139955422Y-81627844D01*
X139955422Y-79723694D01*
X139955422Y-77819545D01*
X141587550Y-77819545D01*
X143219679Y-77819545D01*
X143219679Y-78091566D01*
G37*
G36*
X146211914Y-78907630D02*
G01*
X147027979Y-78907630D01*
X147027979Y-79179652D01*
X147027979Y-79451673D01*
X146211914Y-79451673D01*
X145395850Y-79451673D01*
X145395850Y-79179652D01*
X145395850Y-78907630D01*
X146211914Y-78907630D01*
G37*
G36*
X144307764Y-78363587D02*
G01*
X145395850Y-78363587D01*
X145395850Y-78635609D01*
X145395850Y-78907630D01*
X144307764Y-78907630D01*
X143219679Y-78907630D01*
X143219679Y-78635609D01*
X143219679Y-78363587D01*
X144307764Y-78363587D01*
G37*
G36*
X149204150Y-113454350D02*
G01*
X149204150Y-114270415D01*
X149476171Y-114270415D01*
X149748193Y-114270415D01*
X149748193Y-114814458D01*
X149748193Y-115358500D01*
X150020214Y-115358500D01*
X150292236Y-115358500D01*
X150292236Y-115902543D01*
X150292236Y-116446586D01*
X150564257Y-116446586D01*
X150836279Y-116446586D01*
X150836279Y-116990629D01*
X150836279Y-117534672D01*
X151108300Y-117534672D01*
X151380321Y-117534672D01*
X151380321Y-118078715D01*
X151380321Y-118622757D01*
X151652343Y-118622757D01*
X151924364Y-118622757D01*
X151924364Y-119166800D01*
X151924364Y-119710843D01*
X152196386Y-119710843D01*
X152468407Y-119710843D01*
X152468407Y-119982865D01*
X152468407Y-120254886D01*
X151380321Y-120254886D01*
X150292236Y-120254886D01*
X150292236Y-120526907D01*
X150292236Y-120798929D01*
X150020214Y-120798929D01*
X149748193Y-120798929D01*
X149748193Y-121053949D01*
X149748193Y-121308969D01*
X140499465Y-121308969D01*
X131250736Y-121308969D01*
X131250736Y-121053949D01*
X131250736Y-120798929D01*
X130434672Y-120798929D01*
X129618608Y-120798929D01*
X129618608Y-120526907D01*
X129618608Y-120254886D01*
X130434672Y-120254886D01*
X131250736Y-120254886D01*
X131250736Y-120526907D01*
X131250736Y-120798929D01*
X133426908Y-120798929D01*
X135603079Y-120798929D01*
X135603079Y-120526907D01*
X135603079Y-120254886D01*
X136691165Y-120254886D01*
X137779250Y-120254886D01*
X137779250Y-120526907D01*
X137779250Y-120798929D01*
X142675636Y-120798929D01*
X147572021Y-120798929D01*
X147572021Y-120254886D01*
X147572021Y-119710843D01*
X147844043Y-119710843D01*
X148116064Y-119710843D01*
X148116064Y-120254886D01*
X148116064Y-120798929D01*
X148388086Y-120798929D01*
X148660107Y-120798929D01*
X148660107Y-120254886D01*
X148660107Y-119710843D01*
X148932129Y-119710843D01*
X149204150Y-119710843D01*
X149204150Y-120254886D01*
X149204150Y-120798929D01*
X149476171Y-120798929D01*
X149748193Y-120798929D01*
X149748193Y-119982865D01*
X149748193Y-119166800D01*
X149204150Y-119166800D01*
X148660107Y-119166800D01*
X148660107Y-118894779D01*
X148660107Y-118622757D01*
X148116064Y-118622757D01*
X147572021Y-118622757D01*
X147572021Y-118350736D01*
X147572021Y-118078715D01*
X146483936Y-118078715D01*
X145395850Y-118078715D01*
X145395850Y-117806693D01*
X145395850Y-117534672D01*
X145939893Y-117534672D01*
X146483936Y-117534672D01*
X146483936Y-117262650D01*
X146483936Y-116990629D01*
X146755957Y-116990629D01*
X147027979Y-116990629D01*
X147027979Y-116718607D01*
X147027979Y-116446586D01*
X147300000Y-116446586D01*
X147572021Y-116446586D01*
X147572021Y-115902543D01*
X147572021Y-115358500D01*
X147844043Y-115358500D01*
X148116064Y-115358500D01*
X148116064Y-114814458D01*
X148116064Y-114270415D01*
X148388086Y-114270415D01*
X148660107Y-114270415D01*
X148660107Y-113454350D01*
X148660107Y-112638286D01*
X148932129Y-112638286D01*
X149204150Y-112638286D01*
X149204150Y-113454350D01*
G37*
G36*
X157636814Y-119166800D02*
G01*
X157908835Y-119166800D01*
X157908835Y-119982865D01*
X157908835Y-120798929D01*
X157636814Y-120798929D01*
X157364793Y-120798929D01*
X157364793Y-121053949D01*
X157364793Y-121308969D01*
X155188621Y-121308969D01*
X153012450Y-121308969D01*
X153012450Y-121053949D01*
X153012450Y-120798929D01*
X152740428Y-120798929D01*
X152468407Y-120798929D01*
X152468407Y-120526907D01*
X152468407Y-120254886D01*
X152740428Y-120254886D01*
X153012450Y-120254886D01*
X153012450Y-120526907D01*
X153012450Y-120798929D01*
X154100536Y-120798929D01*
X155188621Y-120798929D01*
X155188621Y-120254886D01*
X155188621Y-119710843D01*
X155460643Y-119710843D01*
X155732664Y-119710843D01*
X155732664Y-120254886D01*
X155732664Y-120798929D01*
X156004685Y-120798929D01*
X156276707Y-120798929D01*
X156276707Y-120254886D01*
X156276707Y-119710843D01*
X156548728Y-119710843D01*
X156820750Y-119710843D01*
X156820750Y-120254886D01*
X156820750Y-120798929D01*
X157092771Y-120798929D01*
X157364793Y-120798929D01*
X157364793Y-119982865D01*
X157364793Y-119166800D01*
X157636814Y-119166800D01*
G37*
G36*
X129346586Y-119710843D02*
G01*
X129618608Y-119710843D01*
X129618608Y-119982865D01*
X129618608Y-120254886D01*
X129346586Y-120254886D01*
X129074565Y-120254886D01*
X129074565Y-119982865D01*
X129074565Y-119710843D01*
X129346586Y-119710843D01*
G37*
G36*
X128802544Y-119166800D02*
G01*
X129074565Y-119166800D01*
X129074565Y-119438822D01*
X129074565Y-119710843D01*
X128802544Y-119710843D01*
X128530522Y-119710843D01*
X128530522Y-119438822D01*
X128530522Y-119166800D01*
X128802544Y-119166800D01*
G37*
G36*
X156820750Y-118622757D02*
G01*
X157364793Y-118622757D01*
X157364793Y-118894779D01*
X157364793Y-119166800D01*
X156820750Y-119166800D01*
X156276707Y-119166800D01*
X156276707Y-118894779D01*
X156276707Y-118622757D01*
X156820750Y-118622757D01*
G37*
G36*
X128530522Y-117534672D02*
G01*
X128530522Y-119166800D01*
X128258501Y-119166800D01*
X127986479Y-119166800D01*
X127986479Y-117534672D01*
X127986479Y-115902543D01*
X128258501Y-115902543D01*
X128530522Y-115902543D01*
X128530522Y-117534672D01*
G37*
G36*
X156004685Y-118078715D02*
G01*
X156276707Y-118078715D01*
X156276707Y-118350736D01*
X156276707Y-118622757D01*
X156004685Y-118622757D01*
X155732664Y-118622757D01*
X155732664Y-118350736D01*
X155732664Y-118078715D01*
X156004685Y-118078715D01*
G37*
G36*
X153556493Y-107197858D02*
G01*
X153556493Y-108829986D01*
X153828514Y-108829986D01*
X154100536Y-108829986D01*
X154100536Y-109102008D01*
X154100536Y-109374029D01*
X154372557Y-109374029D01*
X154644578Y-109374029D01*
X154644578Y-109646051D01*
X154644578Y-109918072D01*
X154916600Y-109918072D01*
X155188621Y-109918072D01*
X155188621Y-109374029D01*
X155188621Y-108829986D01*
X155460643Y-108829986D01*
X155732664Y-108829986D01*
X155732664Y-109374029D01*
X155732664Y-109918072D01*
X156004685Y-109918072D01*
X156276707Y-109918072D01*
X156276707Y-110190093D01*
X156276707Y-110462115D01*
X156004685Y-110462115D01*
X155732664Y-110462115D01*
X155732664Y-110734136D01*
X155732664Y-111006158D01*
X156004685Y-111006158D01*
X156276707Y-111006158D01*
X156276707Y-110734136D01*
X156276707Y-110462115D01*
X157092771Y-110462115D01*
X157908835Y-110462115D01*
X157908835Y-110734136D01*
X157908835Y-111006158D01*
X157092771Y-111006158D01*
X156276707Y-111006158D01*
X156276707Y-111278179D01*
X156276707Y-111550201D01*
X156548728Y-111550201D01*
X156820750Y-111550201D01*
X156820750Y-111822222D01*
X156820750Y-112094243D01*
X157092771Y-112094243D01*
X157364793Y-112094243D01*
X157364793Y-112638286D01*
X157364793Y-113182329D01*
X157636814Y-113182329D01*
X157908835Y-113182329D01*
X157908835Y-114270415D01*
X157908835Y-115358500D01*
X157636814Y-115358500D01*
X157364793Y-115358500D01*
X157364793Y-115902543D01*
X157364793Y-116446586D01*
X157092771Y-116446586D01*
X156820750Y-116446586D01*
X156820750Y-116718607D01*
X156820750Y-116990629D01*
X156548728Y-116990629D01*
X156276707Y-116990629D01*
X156276707Y-117262650D01*
X156276707Y-117534672D01*
X156004685Y-117534672D01*
X155732664Y-117534672D01*
X155732664Y-117806693D01*
X155732664Y-118078715D01*
X155460643Y-118078715D01*
X155188621Y-118078715D01*
X155188621Y-117534672D01*
X155188621Y-116990629D01*
X154916600Y-116990629D01*
X154644578Y-116990629D01*
X154644578Y-115902543D01*
X154644578Y-114814458D01*
X154372557Y-114814458D01*
X154100536Y-114814458D01*
X154100536Y-113726372D01*
X154100536Y-112638286D01*
X153828514Y-112638286D01*
X153556493Y-112638286D01*
X153556493Y-111006158D01*
X153556493Y-109374029D01*
X153284471Y-109374029D01*
X153012450Y-109374029D01*
X153012450Y-107469879D01*
X153012450Y-105565729D01*
X153284471Y-105565729D01*
X153556493Y-105565729D01*
X153556493Y-107197858D01*
G37*
G36*
X165253414Y-113182329D02*
G01*
X165525435Y-113182329D01*
X165525435Y-115086479D01*
X165525435Y-116990629D01*
X165253414Y-116990629D01*
X164981392Y-116990629D01*
X164981392Y-117262650D01*
X164981392Y-117534672D01*
X164437349Y-117534672D01*
X163893307Y-117534672D01*
X163893307Y-117262650D01*
X163893307Y-116990629D01*
X163621285Y-116990629D01*
X163349264Y-116990629D01*
X163349264Y-116718607D01*
X163349264Y-116446586D01*
X163077242Y-116446586D01*
X162805221Y-116446586D01*
X162805221Y-115902543D01*
X162805221Y-115358500D01*
X163077242Y-115358500D01*
X163349264Y-115358500D01*
X163349264Y-115902543D01*
X163349264Y-116446586D01*
X163621285Y-116446586D01*
X163893307Y-116446586D01*
X163893307Y-116174565D01*
X163893307Y-115902543D01*
X164165328Y-115902543D01*
X164437349Y-115902543D01*
X164437349Y-116446586D01*
X164437349Y-116990629D01*
X164709371Y-116990629D01*
X164981392Y-116990629D01*
X164981392Y-115086479D01*
X164981392Y-113182329D01*
X165253414Y-113182329D01*
G37*
G36*
X162533200Y-114270415D02*
G01*
X162805221Y-114270415D01*
X162805221Y-114814458D01*
X162805221Y-115358500D01*
X162533200Y-115358500D01*
X162261178Y-115358500D01*
X162261178Y-114814458D01*
X162261178Y-114270415D01*
X162533200Y-114270415D01*
G37*
G36*
X161989157Y-113182329D02*
G01*
X162261178Y-113182329D01*
X162261178Y-113726372D01*
X162261178Y-114270415D01*
X161989157Y-114270415D01*
X161717135Y-114270415D01*
X161717135Y-113726372D01*
X161717135Y-113182329D01*
X161989157Y-113182329D01*
G37*
G36*
X164709371Y-112094243D02*
G01*
X164981392Y-112094243D01*
X164981392Y-112638286D01*
X164981392Y-113182329D01*
X164709371Y-113182329D01*
X164437349Y-113182329D01*
X164437349Y-112638286D01*
X164437349Y-112094243D01*
X164709371Y-112094243D01*
G37*
G36*
X161445114Y-112638286D02*
G01*
X161717135Y-112638286D01*
X161717135Y-112910308D01*
X161717135Y-113182329D01*
X161445114Y-113182329D01*
X161173092Y-113182329D01*
X161173092Y-112910308D01*
X161173092Y-112638286D01*
X161445114Y-112638286D01*
G37*
G36*
X160901071Y-112094243D02*
G01*
X161173092Y-112094243D01*
X161173092Y-112366265D01*
X161173092Y-112638286D01*
X160901071Y-112638286D01*
X160629050Y-112638286D01*
X160629050Y-112366265D01*
X160629050Y-112094243D01*
X160901071Y-112094243D01*
G37*
G36*
X164165328Y-111006158D02*
G01*
X164437349Y-111006158D01*
X164437349Y-111550201D01*
X164437349Y-112094243D01*
X164165328Y-112094243D01*
X163893307Y-112094243D01*
X163893307Y-111550201D01*
X163893307Y-111006158D01*
X164165328Y-111006158D01*
G37*
G36*
X160085007Y-111550201D02*
G01*
X160629050Y-111550201D01*
X160629050Y-111822222D01*
X160629050Y-112094243D01*
X160085007Y-112094243D01*
X159540964Y-112094243D01*
X159540964Y-111822222D01*
X159540964Y-111550201D01*
X160085007Y-111550201D01*
G37*
G36*
X158724900Y-111006158D02*
G01*
X159540964Y-111006158D01*
X159540964Y-111278179D01*
X159540964Y-111550201D01*
X158724900Y-111550201D01*
X157908835Y-111550201D01*
X157908835Y-111278179D01*
X157908835Y-111006158D01*
X158724900Y-111006158D01*
G37*
G36*
X163621285Y-109918072D02*
G01*
X163893307Y-109918072D01*
X163893307Y-110462115D01*
X163893307Y-111006158D01*
X163621285Y-111006158D01*
X163349264Y-111006158D01*
X163349264Y-110462115D01*
X163349264Y-109918072D01*
X163621285Y-109918072D01*
G37*
G36*
X163077242Y-109374029D02*
G01*
X163349264Y-109374029D01*
X163349264Y-109646051D01*
X163349264Y-109918072D01*
X163077242Y-109918072D01*
X162805221Y-109918072D01*
X162805221Y-109646051D01*
X162805221Y-109374029D01*
X163077242Y-109374029D01*
G37*
G36*
X162533200Y-108829986D02*
G01*
X162805221Y-108829986D01*
X162805221Y-109102008D01*
X162805221Y-109374029D01*
X162533200Y-109374029D01*
X162261178Y-109374029D01*
X162261178Y-109102008D01*
X162261178Y-108829986D01*
X162533200Y-108829986D01*
G37*
G36*
X161989157Y-108285943D02*
G01*
X162261178Y-108285943D01*
X162261178Y-108557965D01*
X162261178Y-108829986D01*
X161989157Y-108829986D01*
X161717135Y-108829986D01*
X161717135Y-108557965D01*
X161717135Y-108285943D01*
X161989157Y-108285943D01*
G37*
G36*
X161445114Y-107741901D02*
G01*
X161717135Y-107741901D01*
X161717135Y-108013922D01*
X161717135Y-108285943D01*
X161445114Y-108285943D01*
X161173092Y-108285943D01*
X161173092Y-108013922D01*
X161173092Y-107741901D01*
X161445114Y-107741901D01*
G37*
G36*
X160901071Y-107197858D02*
G01*
X161173092Y-107197858D01*
X161173092Y-107469879D01*
X161173092Y-107741901D01*
X160901071Y-107741901D01*
X160629050Y-107741901D01*
X160629050Y-107469879D01*
X160629050Y-107197858D01*
X160901071Y-107197858D01*
G37*
G36*
X160357028Y-106653815D02*
G01*
X160629050Y-106653815D01*
X160629050Y-106925836D01*
X160629050Y-107197858D01*
X160357028Y-107197858D01*
X160085007Y-107197858D01*
X160085007Y-106925836D01*
X160085007Y-106653815D01*
X160357028Y-106653815D01*
G37*
G36*
X159812985Y-105565729D02*
G01*
X160085007Y-105565729D01*
X160085007Y-106109772D01*
X160085007Y-106653815D01*
X159812985Y-106653815D01*
X159540964Y-106653815D01*
X159540964Y-106109772D01*
X159540964Y-105565729D01*
X159812985Y-105565729D01*
G37*
G36*
X159268943Y-104477644D02*
G01*
X159540964Y-104477644D01*
X159540964Y-105021686D01*
X159540964Y-105565729D01*
X159268943Y-105565729D01*
X158996921Y-105565729D01*
X158996921Y-105021686D01*
X158996921Y-104477644D01*
X159268943Y-104477644D01*
G37*
G36*
X158724900Y-99037215D02*
G01*
X158996921Y-99037215D01*
X158996921Y-101757429D01*
X158996921Y-104477644D01*
X158724900Y-104477644D01*
X158452878Y-104477644D01*
X158452878Y-104205622D01*
X158452878Y-103933601D01*
X158180857Y-103933601D01*
X157908835Y-103933601D01*
X157908835Y-103389558D01*
X157908835Y-102845515D01*
X158180857Y-102845515D01*
X158452878Y-102845515D01*
X158452878Y-100941365D01*
X158452878Y-99037215D01*
X158724900Y-99037215D01*
G37*
G36*
X158180857Y-97405087D02*
G01*
X158452878Y-97405087D01*
X158452878Y-98221151D01*
X158452878Y-99037215D01*
X158180857Y-99037215D01*
X157908835Y-99037215D01*
X157908835Y-98221151D01*
X157908835Y-97405087D01*
X158180857Y-97405087D01*
G37*
G36*
X157636814Y-95772958D02*
G01*
X157908835Y-95772958D01*
X157908835Y-96589022D01*
X157908835Y-97405087D01*
X157636814Y-97405087D01*
X157364793Y-97405087D01*
X157364793Y-96589022D01*
X157364793Y-95772958D01*
X157636814Y-95772958D01*
G37*
G36*
X157908835Y-93868808D02*
G01*
X157908835Y-94140830D01*
X157636814Y-94140830D01*
X157364793Y-94140830D01*
X157364793Y-94956894D01*
X157364793Y-95772958D01*
X157092771Y-95772958D01*
X156820750Y-95772958D01*
X156820750Y-95228915D01*
X156820750Y-94684873D01*
X155188621Y-94684873D01*
X153556493Y-94684873D01*
X153556493Y-94412851D01*
X153556493Y-94140830D01*
X155188621Y-94140830D01*
X156820750Y-94140830D01*
X156820750Y-93868808D01*
X156820750Y-93596787D01*
X157364793Y-93596787D01*
X157908835Y-93596787D01*
X157908835Y-93868808D01*
G37*
G36*
X136848976Y-93883146D02*
G01*
X136848976Y-93921414D01*
X136887244Y-93921414D01*
X136925513Y-93921414D01*
X136925513Y-93883146D01*
X136925513Y-93844877D01*
X137037766Y-93844877D01*
X137150020Y-93844877D01*
X137150020Y-93883146D01*
X137150020Y-93921414D01*
X137188289Y-93921414D01*
X137226557Y-93921414D01*
X137226557Y-94033668D01*
X137226557Y-94145922D01*
X137188289Y-94145922D01*
X137150020Y-94145922D01*
X137150020Y-94184190D01*
X137150020Y-94222459D01*
X137114303Y-94222459D01*
X137078586Y-94222459D01*
X137078586Y-94258176D01*
X137078586Y-94293893D01*
X137040318Y-94293893D01*
X137002049Y-94293893D01*
X137002049Y-94332161D01*
X137002049Y-94370430D01*
X136963781Y-94370430D01*
X136925513Y-94370430D01*
X136925513Y-94408698D01*
X136925513Y-94446967D01*
X136887244Y-94446967D01*
X136848976Y-94446967D01*
X136848976Y-94408698D01*
X136848976Y-94370430D01*
X136813259Y-94370430D01*
X136777542Y-94370430D01*
X136777542Y-94332161D01*
X136777542Y-94293893D01*
X136739273Y-94293893D01*
X136701005Y-94293893D01*
X136701005Y-94258176D01*
X136701005Y-94222459D01*
X136662736Y-94222459D01*
X136624468Y-94222459D01*
X136624468Y-94184190D01*
X136624468Y-94145922D01*
X136588751Y-94145922D01*
X136553034Y-94145922D01*
X136553034Y-94033668D01*
X136553034Y-93921414D01*
X136588751Y-93921414D01*
X136624468Y-93921414D01*
X136624468Y-93883146D01*
X136624468Y-93844877D01*
X136736722Y-93844877D01*
X136848976Y-93844877D01*
X136848976Y-93883146D01*
G37*
G36*
X136848976Y-90783146D02*
G01*
X136848976Y-90821414D01*
X136887244Y-90821414D01*
X136925513Y-90821414D01*
X136925513Y-90783146D01*
X136925513Y-90744877D01*
X137037766Y-90744877D01*
X137150020Y-90744877D01*
X137150020Y-90783146D01*
X137150020Y-90821414D01*
X137188289Y-90821414D01*
X137226557Y-90821414D01*
X137226557Y-90933668D01*
X137226557Y-91045922D01*
X137188289Y-91045922D01*
X137150020Y-91045922D01*
X137150020Y-91084190D01*
X137150020Y-91122459D01*
X137114303Y-91122459D01*
X137078586Y-91122459D01*
X137078586Y-91158176D01*
X137078586Y-91193893D01*
X137040318Y-91193893D01*
X137002049Y-91193893D01*
X137002049Y-91232161D01*
X137002049Y-91270430D01*
X136963781Y-91270430D01*
X136925513Y-91270430D01*
X136925513Y-91308698D01*
X136925513Y-91346967D01*
X136887244Y-91346967D01*
X136848976Y-91346967D01*
X136848976Y-91308698D01*
X136848976Y-91270430D01*
X136813259Y-91270430D01*
X136777542Y-91270430D01*
X136777542Y-91232161D01*
X136777542Y-91193893D01*
X136739273Y-91193893D01*
X136701005Y-91193893D01*
X136701005Y-91158176D01*
X136701005Y-91122459D01*
X136662736Y-91122459D01*
X136624468Y-91122459D01*
X136624468Y-91084190D01*
X136624468Y-91045922D01*
X136588751Y-91045922D01*
X136553034Y-91045922D01*
X136553034Y-90933668D01*
X136553034Y-90821414D01*
X136588751Y-90821414D01*
X136624468Y-90821414D01*
X136624468Y-90783146D01*
X136624468Y-90744877D01*
X136736722Y-90744877D01*
X136848976Y-90744877D01*
X136848976Y-90783146D01*
G37*
%TD*%
M02*
