%TF.GenerationSoftware,KiCad,Pcbnew,9.0.3*%
%TF.CreationDate,2025-08-02T05:31:17+05:30*%
%TF.ProjectId,coolbuildpathfinder,636f6f6c-6275-4696-9c64-706174686669,rev?*%
%TF.SameCoordinates,Original*%
%TF.FileFunction,Soldermask,Bot*%
%TF.FilePolarity,Negative*%
%FSLAX46Y46*%
G04 Gerber Fmt 4.6, Leading zero omitted, Abs format (unit mm)*
G04 Created by KiCad (PCBNEW 9.0.3) date 2025-08-02 05:31:17*
%MOMM*%
%LPD*%
G01*
G04 APERTURE LIST*
G04 Aperture macros list*
%AMRoundRect*
0 Rectangle with rounded corners*
0 $1 Rounding radius*
0 $2 $3 $4 $5 $6 $7 $8 $9 X,Y pos of 4 corners*
0 Add a 4 corners polygon primitive as box body*
4,1,4,$2,$3,$4,$5,$6,$7,$8,$9,$2,$3,0*
0 Add four circle primitives for the rounded corners*
1,1,$1+$1,$2,$3*
1,1,$1+$1,$4,$5*
1,1,$1+$1,$6,$7*
1,1,$1+$1,$8,$9*
0 Add four rect primitives between the rounded corners*
20,1,$1+$1,$2,$3,$4,$5,0*
20,1,$1+$1,$4,$5,$6,$7,0*
20,1,$1+$1,$6,$7,$8,$9,0*
20,1,$1+$1,$8,$9,$2,$3,0*%
G04 Aperture macros list end*
%ADD10C,1.400000*%
%ADD11C,1.700000*%
%ADD12C,4.000000*%
%ADD13C,2.200000*%
%ADD14C,2.019000*%
%ADD15RoundRect,0.102000X-0.907500X-0.907500X0.907500X-0.907500X0.907500X0.907500X-0.907500X0.907500X0*%
%ADD16RoundRect,0.102000X0.907500X0.907500X-0.907500X0.907500X-0.907500X-0.907500X0.907500X-0.907500X0*%
%ADD17C,1.524000*%
%ADD18RoundRect,0.102000X0.907500X-0.907500X0.907500X0.907500X-0.907500X0.907500X-0.907500X-0.907500X0*%
%ADD19RoundRect,0.102000X-0.907500X0.907500X-0.907500X-0.907500X0.907500X-0.907500X0.907500X0.907500X0*%
G04 APERTURE END LIST*
D10*
%TO.C,R2*%
X128400468Y-88724216D03*
X128400468Y-83644216D03*
%TD*%
D11*
%TO.C,SW4*%
X125020000Y-114700000D03*
D12*
X130100000Y-114700000D03*
D11*
X135180000Y-114700000D03*
D13*
X132640000Y-109620000D03*
X126290000Y-112160000D03*
%TD*%
D11*
%TO.C,SW1*%
X144315000Y-105255000D03*
D12*
X149395000Y-105255000D03*
D11*
X154475000Y-105255000D03*
D13*
X151935000Y-100175000D03*
X145585000Y-102715000D03*
%TD*%
D11*
%TO.C,SW2*%
X163720000Y-114500000D03*
D12*
X168800000Y-114500000D03*
D11*
X173880000Y-114500000D03*
D13*
X171340000Y-109420000D03*
X164990000Y-111960000D03*
%TD*%
D14*
%TO.C,D3*%
X162100000Y-80931500D03*
D15*
X159560000Y-80931500D03*
%TD*%
D14*
%TO.C,D1*%
X138900000Y-80731500D03*
D16*
X141440000Y-80731500D03*
%TD*%
D10*
%TO.C,R1*%
X128400468Y-97584216D03*
X128400468Y-92504216D03*
%TD*%
D11*
%TO.C,SW3*%
X144340000Y-124600000D03*
D12*
X149420000Y-124600000D03*
D11*
X154500000Y-124600000D03*
D13*
X151960000Y-119520000D03*
X145610000Y-122060000D03*
%TD*%
D17*
%TO.C,U1*%
X123680000Y-58048500D03*
X123680000Y-60588500D03*
X123680000Y-63128500D03*
X123680000Y-65668500D03*
X123680000Y-68208500D03*
X123680000Y-70748500D03*
X123680000Y-73288500D03*
X138920000Y-73288500D03*
X138920000Y-70748500D03*
X138920000Y-68208500D03*
X138920000Y-65668500D03*
X138920000Y-63128500D03*
X138920000Y-60588500D03*
X138920000Y-58048500D03*
%TD*%
D10*
%TO.C,R4*%
X171399532Y-92375784D03*
X171399532Y-97455784D03*
%TD*%
D14*
%TO.C,D2*%
X150600000Y-68861500D03*
D18*
X150600000Y-71401500D03*
%TD*%
D14*
%TO.C,D4*%
X150400000Y-92171500D03*
D19*
X150400000Y-89631500D03*
%TD*%
D10*
%TO.C,R3*%
X171399532Y-83675784D03*
X171399532Y-88755784D03*
%TD*%
M02*
