M48
; DRILL file {KiCad 9.0.3} date 2025-08-02T05:33:38+0530
; FORMAT={-:-/ absolute / metric / decimal}
; #@! TF.CreationDate,2025-08-02T05:33:38+05:30
; #@! TF.GenerationSoftware,Kicad,Pcbnew,9.0.3
; #@! TF.FileFunction,Plated,1,2,PTH
FMAT,2
METRIC
; #@! TA.AperFunction,Plated,PTH,ViaDrill
T1C0.300
; #@! TA.AperFunction,Plated,PTH,ComponentDrill
T2C0.700
; #@! TA.AperFunction,Plated,PTH,ComponentDrill
T3C0.889
; #@! TA.AperFunction,Plated,PTH,ComponentDrill
T4C1.210
; #@! TA.AperFunction,Plated,PTH,ComponentDrill
T5C1.500
%
G90
G05
T1
X121.1Y-76.6
X122.6Y-92.0
T2
X128.4Y-83.644
X128.4Y-88.724
X128.4Y-92.504
X128.4Y-97.584
X171.4Y-83.676
X171.4Y-88.756
X171.4Y-92.376
X171.4Y-97.456
T3
X123.68Y-58.048
X123.68Y-60.588
X123.68Y-63.128
X123.68Y-65.668
X123.68Y-68.209
X123.68Y-70.748
X123.68Y-73.288
X138.92Y-58.048
X138.92Y-60.588
X138.92Y-63.128
X138.92Y-65.668
X138.92Y-68.209
X138.92Y-70.748
X138.92Y-73.288
T4
X138.9Y-80.731
X141.44Y-80.731
X150.4Y-89.632
X150.4Y-92.171
X150.6Y-68.861
X150.6Y-71.401
X159.56Y-80.931
X162.1Y-80.931
T5
X126.29Y-112.16
X132.64Y-109.62
X145.585Y-102.715
X145.61Y-122.06
X151.935Y-100.175
X151.96Y-119.52
X164.99Y-111.96
X171.34Y-109.42
M30
