%TF.GenerationSoftware,KiCad,Pcbnew,9.0.3*%
%TF.CreationDate,2025-08-02T05:31:17+05:30*%
%TF.ProjectId,coolbuildpathfinder,636f6f6c-6275-4696-9c64-706174686669,rev?*%
%TF.SameCoordinates,Original*%
%TF.FileFunction,Copper,L1,Top*%
%TF.FilePolarity,Positive*%
%FSLAX46Y46*%
G04 Gerber Fmt 4.6, Leading zero omitted, Abs format (unit mm)*
G04 Created by KiCad (PCBNEW 9.0.3) date 2025-08-02 05:31:17*
%MOMM*%
%LPD*%
G01*
G04 APERTURE LIST*
G04 Aperture macros list*
%AMRoundRect*
0 Rectangle with rounded corners*
0 $1 Rounding radius*
0 $2 $3 $4 $5 $6 $7 $8 $9 X,Y pos of 4 corners*
0 Add a 4 corners polygon primitive as box body*
4,1,4,$2,$3,$4,$5,$6,$7,$8,$9,$2,$3,0*
0 Add four circle primitives for the rounded corners*
1,1,$1+$1,$2,$3*
1,1,$1+$1,$4,$5*
1,1,$1+$1,$6,$7*
1,1,$1+$1,$8,$9*
0 Add four rect primitives between the rounded corners*
20,1,$1+$1,$2,$3,$4,$5,0*
20,1,$1+$1,$4,$5,$6,$7,0*
20,1,$1+$1,$6,$7,$8,$9,0*
20,1,$1+$1,$8,$9,$2,$3,0*%
G04 Aperture macros list end*
%TA.AperFunction,ComponentPad*%
%ADD10C,1.400000*%
%TD*%
%TA.AperFunction,ComponentPad*%
%ADD11C,2.200000*%
%TD*%
%TA.AperFunction,ComponentPad*%
%ADD12C,1.815000*%
%TD*%
%TA.AperFunction,ComponentPad*%
%ADD13R,1.815000X1.815000*%
%TD*%
%TA.AperFunction,SMDPad,CuDef*%
%ADD14RoundRect,0.152400X1.063600X0.609600X-1.063600X0.609600X-1.063600X-0.609600X1.063600X-0.609600X0*%
%TD*%
%TA.AperFunction,ComponentPad*%
%ADD15C,1.524000*%
%TD*%
%TA.AperFunction,SMDPad,CuDef*%
%ADD16RoundRect,0.152400X-1.063600X-0.609600X1.063600X-0.609600X1.063600X0.609600X-1.063600X0.609600X0*%
%TD*%
%TA.AperFunction,ViaPad*%
%ADD17C,0.600000*%
%TD*%
%TA.AperFunction,Conductor*%
%ADD18C,0.200000*%
%TD*%
G04 APERTURE END LIST*
D10*
%TO.P,R2,1*%
%TO.N,Net-(D2-PadA)*%
X128400468Y-88724216D03*
%TO.P,R2,2*%
%TO.N,LED2*%
X128400468Y-83644216D03*
%TD*%
D11*
%TO.P,SW4,1,1*%
%TO.N,button4*%
X132640000Y-109620000D03*
%TO.P,SW4,2,2*%
%TO.N,GND*%
X126290000Y-112160000D03*
%TD*%
%TO.P,SW1,1,1*%
%TO.N,button3*%
X151935000Y-100175000D03*
%TO.P,SW1,2,2*%
%TO.N,GND*%
X145585000Y-102715000D03*
%TD*%
%TO.P,SW2,1,1*%
%TO.N,button2*%
X171340000Y-109420000D03*
%TO.P,SW2,2,2*%
%TO.N,GND*%
X164990000Y-111960000D03*
%TD*%
D12*
%TO.P,D3,A*%
%TO.N,Net-(D3-PadA)*%
X162100000Y-80931500D03*
D13*
%TO.P,D3,C*%
%TO.N,GND*%
X159560000Y-80931500D03*
%TD*%
D12*
%TO.P,D1,A*%
%TO.N,Net-(D1-PadA)*%
X138900000Y-80731500D03*
D13*
%TO.P,D1,C*%
%TO.N,GND*%
X141440000Y-80731500D03*
%TD*%
D10*
%TO.P,R1,1*%
%TO.N,Net-(D1-PadA)*%
X128400468Y-97584216D03*
%TO.P,R1,2*%
%TO.N,LED1*%
X128400468Y-92504216D03*
%TD*%
D11*
%TO.P,SW3,1,1*%
%TO.N,button1*%
X151960000Y-119520000D03*
%TO.P,SW3,2,2*%
%TO.N,GND*%
X145610000Y-122060000D03*
%TD*%
D14*
%TO.P,U1,1,GPIO26/ADC0/A0*%
%TO.N,button1*%
X122845000Y-58048500D03*
D15*
X123680000Y-58048500D03*
D14*
%TO.P,U1,2,GPIO27/ADC1/A1*%
%TO.N,button2*%
X122845000Y-60588500D03*
D15*
X123680000Y-60588500D03*
D14*
%TO.P,U1,3,GPIO28/ADC2/A2*%
%TO.N,button3*%
X122845000Y-63128500D03*
D15*
X123680000Y-63128500D03*
D14*
%TO.P,U1,4,GPIO29/ADC3/A3*%
%TO.N,button4*%
X122845000Y-65668500D03*
D15*
X123680000Y-65668500D03*
D14*
%TO.P,U1,5,GPIO6/SDA*%
%TO.N,LED3*%
X122845000Y-68208500D03*
D15*
X123680000Y-68208500D03*
D14*
%TO.P,U1,6,GPIO7/SCL*%
%TO.N,LED4*%
X122845000Y-70748500D03*
D15*
X123680000Y-70748500D03*
D14*
%TO.P,U1,7,GPIO0/TX*%
%TO.N,unconnected-(U1-GPIO0{slash}TX-Pad7)*%
X122845000Y-73288500D03*
D15*
X123680000Y-73288500D03*
%TO.P,U1,8,GPIO1/RX*%
%TO.N,unconnected-(U1-GPIO1{slash}RX-Pad8)*%
X138920000Y-73288500D03*
D16*
X139755000Y-73288500D03*
D15*
%TO.P,U1,9,GPIO2/SCK*%
%TO.N,LED2*%
X138920000Y-70748500D03*
D16*
X139755000Y-70748500D03*
D15*
%TO.P,U1,10,GPIO4/MISO*%
%TO.N,LED1*%
X138920000Y-68208500D03*
D16*
X139755000Y-68208500D03*
D15*
%TO.P,U1,11,GPIO3/MOSI*%
%TO.N,unconnected-(U1-GPIO3{slash}MOSI-Pad11)*%
X138920000Y-65668500D03*
D16*
X139755000Y-65668500D03*
D15*
%TO.P,U1,12,3V3*%
%TO.N,unconnected-(U1-3V3-Pad12)*%
X138920000Y-63128500D03*
D16*
X139755000Y-63128500D03*
D15*
%TO.P,U1,13,GND*%
%TO.N,GND*%
X138920000Y-60588500D03*
D16*
X139755000Y-60588500D03*
D15*
%TO.P,U1,14,VBUS*%
%TO.N,unconnected-(U1-VBUS-Pad14)*%
X138920000Y-58048500D03*
D16*
X139755000Y-58048500D03*
%TD*%
D10*
%TO.P,R4,1*%
%TO.N,Net-(D4-PadA)*%
X171399532Y-92375784D03*
%TO.P,R4,2*%
%TO.N,LED4*%
X171399532Y-97455784D03*
%TD*%
D12*
%TO.P,D2,A*%
%TO.N,Net-(D2-PadA)*%
X150600000Y-68861500D03*
D13*
%TO.P,D2,C*%
%TO.N,GND*%
X150600000Y-71401500D03*
%TD*%
D12*
%TO.P,D4,A*%
%TO.N,Net-(D4-PadA)*%
X150400000Y-92171500D03*
D13*
%TO.P,D4,C*%
%TO.N,GND*%
X150400000Y-89631500D03*
%TD*%
D10*
%TO.P,R3,1*%
%TO.N,Net-(D3-PadA)*%
X171399532Y-83675784D03*
%TO.P,R3,2*%
%TO.N,LED3*%
X171399532Y-88755784D03*
%TD*%
D17*
%TO.N,button1*%
X122600000Y-92000000D03*
X121100000Y-76600000D03*
%TD*%
D18*
%TO.N,GND*%
X152100000Y-67100000D02*
X143000000Y-67100000D01*
X150600000Y-71571500D02*
X141440000Y-80731500D01*
X141800000Y-62633500D02*
X139755000Y-60588500D01*
X150600000Y-71401500D02*
X152100000Y-69901500D01*
X150400000Y-89631500D02*
X150860000Y-89631500D01*
X141440000Y-80731500D02*
X141500000Y-80731500D01*
X146565000Y-102815000D02*
X146565000Y-93466500D01*
X150860000Y-89631500D02*
X159560000Y-80931500D01*
X150600000Y-71401500D02*
X150600000Y-71571500D01*
X152100000Y-69901500D02*
X152100000Y-67100000D01*
X146565000Y-93466500D02*
X150400000Y-89631500D01*
X143000000Y-67100000D02*
X141800000Y-65900000D01*
X141500000Y-80731500D02*
X150400000Y-89631500D01*
X141800000Y-65900000D02*
X141800000Y-62633500D01*
%TO.N,Net-(D1-PadA)*%
X138900000Y-94000000D02*
X138900000Y-80731500D01*
X128400468Y-97584216D02*
X135315784Y-97584216D01*
X135315784Y-97584216D02*
X138900000Y-94000000D01*
%TO.N,Net-(D2-PadA)*%
X135000000Y-84400000D02*
X135000000Y-79500000D01*
X148838500Y-68861500D02*
X150600000Y-68861500D01*
X146800000Y-74400000D02*
X146800000Y-70900000D01*
X137500000Y-77000000D02*
X144200000Y-77000000D01*
X128400468Y-88724216D02*
X130675784Y-88724216D01*
X135000000Y-79500000D02*
X137500000Y-77000000D01*
X144200000Y-77000000D02*
X146800000Y-74400000D01*
X146800000Y-70900000D02*
X148838500Y-68861500D01*
X130675784Y-88724216D02*
X135000000Y-84400000D01*
%TO.N,Net-(D3-PadA)*%
X171399532Y-83675784D02*
X168655248Y-80931500D01*
X168655248Y-80931500D02*
X162100000Y-80931500D01*
%TO.N,LED1*%
X127504216Y-92504216D02*
X124500000Y-89500000D01*
X128400468Y-92504216D02*
X128400468Y-92300468D01*
X128400000Y-92300000D02*
X128400468Y-92300468D01*
X124500000Y-80700000D02*
X136991500Y-68208500D01*
X124500000Y-89500000D02*
X124500000Y-80700000D01*
X128400468Y-92504216D02*
X127504216Y-92504216D01*
X136991500Y-68208500D02*
X138920000Y-68208500D01*
%TO.N,LED2*%
X128400468Y-81268032D02*
X138920000Y-70748500D01*
X128400468Y-83644216D02*
X128400468Y-81268032D01*
%TO.N,LED3*%
X171400000Y-88755316D02*
X171399532Y-88755784D01*
X171400000Y-88700000D02*
X171400000Y-88755316D01*
%TO.N,button3*%
X152915000Y-100275000D02*
X152825000Y-100275000D01*
X152800000Y-100300000D02*
X152825000Y-100275000D01*
%TO.N,button1*%
X146920000Y-119620000D02*
X123000000Y-95700000D01*
X121148500Y-58048500D02*
X122845000Y-58048500D01*
X123000000Y-95700000D02*
X122600000Y-95300000D01*
X152940000Y-119620000D02*
X152940000Y-119340000D01*
X121100000Y-58097000D02*
X121148500Y-58048500D01*
X121100000Y-76600000D02*
X121100000Y-58097000D01*
X122600000Y-95300000D02*
X122600000Y-92000000D01*
X152940000Y-119620000D02*
X146920000Y-119620000D01*
%TO.N,LED4*%
X171555784Y-97455784D02*
X171600000Y-97500000D01*
X171555784Y-97455784D02*
X171399532Y-97455784D01*
%TO.N,button4*%
X126868500Y-65668500D02*
X122845000Y-65668500D01*
X120800000Y-96900000D02*
X120800000Y-78500000D01*
X128200000Y-67000000D02*
X126868500Y-65668500D01*
X128200000Y-71100000D02*
X128200000Y-67000000D01*
X120800000Y-78500000D02*
X128200000Y-71100000D01*
X133620000Y-109720000D02*
X120800000Y-96900000D01*
%TO.N,Net-(D4-PadA)*%
X150604284Y-92375784D02*
X150400000Y-92171500D01*
X171399532Y-92375784D02*
X150604284Y-92375784D01*
%TD*%
M02*
