%TF.GenerationSoftware,KiCad,Pcbnew,9.0.3*%
%TF.CreationDate,2025-08-02T05:31:17+05:30*%
%TF.ProjectId,coolbuildpathfinder,636f6f6c-6275-4696-9c64-706174686669,rev?*%
%TF.SameCoordinates,Original*%
%TF.FileFunction,Copper,L2,Bot*%
%TF.FilePolarity,Positive*%
%FSLAX46Y46*%
G04 Gerber Fmt 4.6, Leading zero omitted, Abs format (unit mm)*
G04 Created by KiCad (PCBNEW 9.0.3) date 2025-08-02 05:31:17*
%MOMM*%
%LPD*%
G01*
G04 APERTURE LIST*
%TA.AperFunction,ComponentPad*%
%ADD10C,1.400000*%
%TD*%
%TA.AperFunction,ComponentPad*%
%ADD11C,2.200000*%
%TD*%
%TA.AperFunction,ComponentPad*%
%ADD12C,1.815000*%
%TD*%
%TA.AperFunction,ComponentPad*%
%ADD13R,1.815000X1.815000*%
%TD*%
%TA.AperFunction,ComponentPad*%
%ADD14C,1.524000*%
%TD*%
%TA.AperFunction,ViaPad*%
%ADD15C,0.600000*%
%TD*%
%TA.AperFunction,Conductor*%
%ADD16C,0.200000*%
%TD*%
G04 APERTURE END LIST*
D10*
%TO.P,R2,1*%
%TO.N,Net-(D2-PadA)*%
X128400468Y-88724216D03*
%TO.P,R2,2*%
%TO.N,LED2*%
X128400468Y-83644216D03*
%TD*%
D11*
%TO.P,SW4,1,1*%
%TO.N,button4*%
X132640000Y-109620000D03*
%TO.P,SW4,2,2*%
%TO.N,GND*%
X126290000Y-112160000D03*
%TD*%
%TO.P,SW1,1,1*%
%TO.N,button3*%
X151935000Y-100175000D03*
%TO.P,SW1,2,2*%
%TO.N,GND*%
X145585000Y-102715000D03*
%TD*%
%TO.P,SW2,1,1*%
%TO.N,button2*%
X171340000Y-109420000D03*
%TO.P,SW2,2,2*%
%TO.N,GND*%
X164990000Y-111960000D03*
%TD*%
D12*
%TO.P,D3,A*%
%TO.N,Net-(D3-PadA)*%
X162100000Y-80931500D03*
D13*
%TO.P,D3,C*%
%TO.N,GND*%
X159560000Y-80931500D03*
%TD*%
D12*
%TO.P,D1,A*%
%TO.N,Net-(D1-PadA)*%
X138900000Y-80731500D03*
D13*
%TO.P,D1,C*%
%TO.N,GND*%
X141440000Y-80731500D03*
%TD*%
D10*
%TO.P,R1,1*%
%TO.N,Net-(D1-PadA)*%
X128400468Y-97584216D03*
%TO.P,R1,2*%
%TO.N,LED1*%
X128400468Y-92504216D03*
%TD*%
D11*
%TO.P,SW3,1,1*%
%TO.N,button1*%
X151960000Y-119520000D03*
%TO.P,SW3,2,2*%
%TO.N,GND*%
X145610000Y-122060000D03*
%TD*%
D14*
%TO.P,U1,1,GPIO26/ADC0/A0*%
%TO.N,button1*%
X123680000Y-58048500D03*
%TO.P,U1,2,GPIO27/ADC1/A1*%
%TO.N,button2*%
X123680000Y-60588500D03*
%TO.P,U1,3,GPIO28/ADC2/A2*%
%TO.N,button3*%
X123680000Y-63128500D03*
%TO.P,U1,4,GPIO29/ADC3/A3*%
%TO.N,button4*%
X123680000Y-65668500D03*
%TO.P,U1,5,GPIO6/SDA*%
%TO.N,LED3*%
X123680000Y-68208500D03*
%TO.P,U1,6,GPIO7/SCL*%
%TO.N,LED4*%
X123680000Y-70748500D03*
%TO.P,U1,7,GPIO0/TX*%
%TO.N,unconnected-(U1-GPIO0{slash}TX-Pad7)*%
X123680000Y-73288500D03*
%TO.P,U1,8,GPIO1/RX*%
%TO.N,unconnected-(U1-GPIO1{slash}RX-Pad8)*%
X138920000Y-73288500D03*
%TO.P,U1,9,GPIO2/SCK*%
%TO.N,LED2*%
X138920000Y-70748500D03*
%TO.P,U1,10,GPIO4/MISO*%
%TO.N,LED1*%
X138920000Y-68208500D03*
%TO.P,U1,11,GPIO3/MOSI*%
%TO.N,unconnected-(U1-GPIO3{slash}MOSI-Pad11)*%
X138920000Y-65668500D03*
%TO.P,U1,12,3V3*%
%TO.N,unconnected-(U1-3V3-Pad12)*%
X138920000Y-63128500D03*
%TO.P,U1,13,GND*%
%TO.N,GND*%
X138920000Y-60588500D03*
%TO.P,U1,14,VBUS*%
%TO.N,unconnected-(U1-VBUS-Pad14)*%
X138920000Y-58048500D03*
%TD*%
D10*
%TO.P,R4,1*%
%TO.N,Net-(D4-PadA)*%
X171399532Y-92375784D03*
%TO.P,R4,2*%
%TO.N,LED4*%
X171399532Y-97455784D03*
%TD*%
D12*
%TO.P,D2,A*%
%TO.N,Net-(D2-PadA)*%
X150600000Y-68861500D03*
D13*
%TO.P,D2,C*%
%TO.N,GND*%
X150600000Y-71401500D03*
%TD*%
D12*
%TO.P,D4,A*%
%TO.N,Net-(D4-PadA)*%
X150400000Y-92171500D03*
D13*
%TO.P,D4,C*%
%TO.N,GND*%
X150400000Y-89631500D03*
%TD*%
D10*
%TO.P,R3,1*%
%TO.N,Net-(D3-PadA)*%
X171399532Y-83675784D03*
%TO.P,R3,2*%
%TO.N,LED3*%
X171399532Y-88755784D03*
%TD*%
D15*
%TO.N,button1*%
X122600000Y-92000000D03*
X121100000Y-76600000D03*
%TD*%
D16*
%TO.N,GND*%
X146565000Y-102815000D02*
X146565000Y-102535000D01*
X158500000Y-115300000D02*
X146600000Y-115300000D01*
X146565000Y-102535000D02*
X146700000Y-102400000D01*
X136715000Y-102815000D02*
X146565000Y-102815000D01*
X161740000Y-112060000D02*
X158500000Y-115300000D01*
X127270000Y-112260000D02*
X136715000Y-102815000D01*
X146590000Y-115310000D02*
X146590000Y-122160000D01*
X165970000Y-112060000D02*
X161740000Y-112060000D01*
X146565000Y-102815000D02*
X156725000Y-102815000D01*
X146600000Y-115300000D02*
X146590000Y-115310000D01*
X156725000Y-102815000D02*
X165970000Y-112060000D01*
%TO.N,Net-(D3-PadA)*%
X171100000Y-83975316D02*
X171100000Y-84000000D01*
X171399532Y-83675784D02*
X171100000Y-83975316D01*
%TO.N,LED3*%
X152883974Y-88755784D02*
X132336690Y-68208500D01*
X171399532Y-88755784D02*
X152883974Y-88755784D01*
X132336690Y-68208500D02*
X123680000Y-68208500D01*
%TO.N,button3*%
X152915000Y-100275000D02*
X121675000Y-100275000D01*
X122071500Y-63128500D02*
X123680000Y-63128500D01*
X119900000Y-65300000D02*
X122071500Y-63128500D01*
X119900000Y-98500000D02*
X119900000Y-65300000D01*
X121675000Y-100275000D02*
X119900000Y-98500000D01*
%TO.N,button2*%
X134200000Y-66300000D02*
X132900000Y-66300000D01*
X142500000Y-70600000D02*
X141171500Y-69271500D01*
X132900000Y-66300000D02*
X127188500Y-60588500D01*
X141171500Y-69271500D02*
X137171500Y-69271500D01*
X144900000Y-75500000D02*
X142500000Y-73100000D01*
X127188500Y-60588500D02*
X123680000Y-60588500D01*
X172320000Y-109520000D02*
X176300000Y-105540000D01*
X176300000Y-105540000D02*
X176300000Y-80300000D01*
X142500000Y-73100000D02*
X142500000Y-70600000D01*
X171500000Y-75500000D02*
X144900000Y-75500000D01*
X137171500Y-69271500D02*
X134200000Y-66300000D01*
X176300000Y-80300000D02*
X171500000Y-75500000D01*
%TO.N,button1*%
X122600000Y-92000000D02*
X122600000Y-78100000D01*
X122600000Y-78100000D02*
X121100000Y-76600000D01*
%TO.N,LED4*%
X125348500Y-70748500D02*
X123680000Y-70748500D01*
X152055784Y-97455784D02*
X125348500Y-70748500D01*
X171399532Y-97455784D02*
X152055784Y-97455784D01*
%TD*%
M02*
